<?xml version="1.0" standalone="no"?>
<!DOCTYPE svg PUBLIC "-//W3C//DTD SVG 20010904//EN"
 "http://www.w3.org/TR/2001/REC-SVG-20010904/DTD/svg10.dtd">
<svg version="1.0" xmlns="http://www.w3.org/2000/svg"
 width="512.000000pt" height="512.000000pt" viewBox="0 0 512.000000 512.000000"
 preserveAspectRatio="xMidYMid meet">

<g transform="translate(0.000000,512.000000) scale(0.100000,-0.100000)"
fill="#000000" stroke="none">
<path d="M601 4494 c-124 -33 -227 -121 -284 -241 -30 -63 -32 -76 -32 -173 0
-97 2 -110 32 -173 38 -79 114 -163 181 -200 111 -60 -10 -57 2062 -57 2072 0
1951 -3 2062 57 67 37 143 121 181 200 30 63 32 76 32 173 0 97 -2 110 -32
173 -59 124 -176 220 -301 246 -38 8 -598 11 -1950 10 -1625 0 -1905 -2 -1951
-15z m3926 -214 c155 -89 152 -320 -6 -402 l-53 -28 -1908 0 -1908 0 -53 28
c-163 85 -162 318 1 405 l52 27 1912 0 1911 0 52 -30z"/>
<path d="M601 2974 c-124 -33 -227 -121 -284 -241 -30 -63 -32 -76 -32 -173 0
-97 2 -110 32 -173 38 -79 114 -163 181 -200 111 -60 -10 -57 2062 -57 2072 0
1951 -3 2062 57 67 37 143 121 181 200 30 63 32 76 32 173 0 97 -2 110 -32
173 -57 120 -163 210 -287 243 -79 21 -3836 19 -3915 -2z m3920 -212 c161 -83
161 -321 0 -404 l-53 -28 -1907 0 -1907 0 -52 26 c-166 83 -166 325 0 408 l52
26 1907 0 1907 0 53 -28z"/>
<path d="M599 1456 c-119 -33 -226 -126 -282 -243 -30 -63 -32 -76 -32 -173 0
-97 2 -110 32 -173 38 -79 114 -163 181 -200 111 -60 -10 -57 2062 -57 2072 0
1951 -3 2062 57 67 37 143 121 181 200 30 63 32 76 32 173 0 97 -2 110 -32
173 -59 124 -176 220 -301 246 -82 17 -3841 14 -3903 -3z m3931 -219 c148 -89
150 -301 5 -392 l-48 -30 -1916 -3 -1915 -2 -53 26 c-164 80 -169 313 -8 405
l50 29 1915 0 1916 0 54 -33z"/>
</g>
</svg>
