<?xml version="1.0" standalone="no"?>
<!DOCTYPE svg PUBLIC "-//W3C//DTD SVG 20010904//EN"
 "http://www.w3.org/TR/2001/REC-SVG-20010904/DTD/svg10.dtd">
<svg version="1.0" xmlns="http://www.w3.org/2000/svg"
 width="512.000000pt" height="512.000000pt" viewBox="0 0 512.000000 512.000000"
 preserveAspectRatio="xMidYMid meet">

<g transform="translate(0.000000,512.000000) scale(0.100000,-0.100000)"
fill="#000000" stroke="none">
<path d="M1109 4321 c-77 -25 -127 -62 -246 -183 -137 -140 -158 -183 -158
-328 0 -98 2 -110 33 -175 31 -65 68 -105 577 -615 l544 -545 -549 -550 c-636
-637 -605 -597 -605 -775 0 -98 2 -110 33 -174 26 -56 54 -91 145 -181 123
-122 181 -158 285 -176 48 -9 78 -8 125 1 133 26 129 22 715 605 299 297 548
540 552 540 5 0 253 -243 552 -540 463 -461 552 -545 601 -568 81 -39 161 -52
239 -38 104 18 162 54 285 176 91 90 119 125 145 181 31 64 33 76 33 174 0
178 31 138 -605 775 l-549 550 544 545 c509 510 546 550 577 615 31 65 33 77
33 175 0 146 -20 188 -163 332 -59 60 -127 122 -152 138 -119 75 -289 79 -410
8 -19 -12 -281 -267 -582 -567 l-548 -546 -547 546 c-302 300 -564 555 -583
567 -89 52 -219 66 -321 33z"/>
</g>
</svg>
